HIERARCHY
ROOT mixamorig:Hips
{
	OFFSET 0.000000 102.625267 -0.521241
	CHANNELS 6 Xposition Yposition Zposition Xrotation Yrotation Zrotation
	JOINT mixamorig:Spine
	{
		OFFSET 0.000000 5.645721 -0.031929
		CHANNELS 3 Xrotation Yrotation Zrotation
		JOINT mixamorig:Spine1
		{
			OFFSET 0.000000 6.586685 -0.037251
			CHANNELS 3 Xrotation Yrotation Zrotation
			JOINT mixamorig:Spine2
			{
				OFFSET 0.000000 7.527618 -0.042572
				CHANNELS 3 Xrotation Yrotation Zrotation
				JOINT mixamorig:Neck
				{
					OFFSET 0.000000 8.468590 -0.047894
					CHANNELS 3 Xrotation Yrotation Zrotation
					JOINT mixamorig:Head
					{
						OFFSET 0.000000 5.998901 -1.158958
						CHANNELS 3 Xrotation Yrotation Zrotation
						JOINT mixamorig:HeadTop_End
						{
							OFFSET 0.000000 21.748810 -4.201760
							CHANNELS 3 Xrotation Yrotation Zrotation
							End Site
							{
								OFFSET 0.000000 22.150970 0.000000
							}
						}
					}
				}
				JOINT mixamorig:LeftShoulder
				{
					OFFSET 3.414614 7.343132 -0.058928
					CHANNELS 3 Xrotation Yrotation Zrotation
					JOINT mixamorig:LeftArm
					{
						OFFSET 6.829548 -2.246910 -0.022071
						CHANNELS 3 Xrotation Yrotation Zrotation
						JOINT mixamorig:LeftForeArm
						{
							OFFSET 24.198503 -0.424179 0.257802
							CHANNELS 3 Xrotation Yrotation Zrotation
							JOINT mixamorig:LeftHand
							{
								OFFSET 21.584717 -0.002335 0.669575
								CHANNELS 3 Xrotation Yrotation Zrotation
								JOINT mixamorig:LeftHandThumb1
								{
									OFFSET 2.193897 -1.259628 1.956942
									CHANNELS 3 Xrotation Yrotation Zrotation
									JOINT mixamorig:LeftHandThumb2
									{
										OFFSET 1.755203 -1.007660 1.565605
										CHANNELS 3 Xrotation Yrotation Zrotation
										JOINT mixamorig:LeftHandThumb3
										{
											OFFSET 2.535126 -0.998764 1.490660
											CHANNELS 3 Xrotation Yrotation Zrotation
											JOINT mixamorig:LeftHandThumb4
											{
												OFFSET 2.398251 -0.721657 1.023775
												CHANNELS 3 Xrotation Yrotation Zrotation
												End Site
												{
													OFFSET 2.205696 -0.773872 1.362551
												}
											}
										}
									}
								}
								JOINT mixamorig:LeftHandIndex1
								{
									OFFSET 7.166248 -0.069405 2.369028
									CHANNELS 3 Xrotation Yrotation Zrotation
									JOINT mixamorig:LeftHandIndex2
									{
										OFFSET 2.989986 -0.015724 0.245918
										CHANNELS 3 Xrotation Yrotation Zrotation
										JOINT mixamorig:LeftHandIndex3
										{
											OFFSET 2.739197 -0.058952 0.219132
											CHANNELS 3 Xrotation Yrotation Zrotation
											JOINT mixamorig:LeftHandIndex4
											{
												OFFSET 2.326500 -0.032570 0.188458
												CHANNELS 3 Xrotation Yrotation Zrotation
												End Site
												{
													OFFSET 2.326485 -0.032578 0.188548
												}
											}
										}
									}
								}
								JOINT mixamorig:LeftHandMiddle1
								{
									OFFSET 7.394897 0.286369 0.654762
									CHANNELS 3 Xrotation Yrotation Zrotation
									JOINT mixamorig:LeftHandMiddle2
									{
										OFFSET 3.376106 0.152466 -0.003692
										CHANNELS 3 Xrotation Yrotation Zrotation
										JOINT mixamorig:LeftHandMiddle3
										{
											OFFSET 3.185104 -0.185410 -0.047914
											CHANNELS 3 Xrotation Yrotation Zrotation
											JOINT mixamorig:LeftHandMiddle4
											{
												OFFSET 2.742905 0.223846 0.010354
												CHANNELS 3 Xrotation Yrotation Zrotation
												End Site
												{
													OFFSET 2.742889 0.224251 0.006757
												}
											}
										}
									}
								}
								JOINT mixamorig:LeftHandRing1
								{
									OFFSET 7.508747 0.282753 -1.072900
									CHANNELS 3 Xrotation Yrotation Zrotation
									JOINT mixamorig:LeftHandRing2
									{
										OFFSET 2.821857 0.317802 -0.177266
										CHANNELS 3 Xrotation Yrotation Zrotation
										JOINT mixamorig:LeftHandRing3
										{
											OFFSET 2.672325 0.088310 -0.196165
											CHANNELS 3 Xrotation Yrotation Zrotation
											JOINT mixamorig:LeftHandRing4
											{
												OFFSET 2.272652 -0.053627 -0.183955
												CHANNELS 3 Xrotation Yrotation Zrotation
												End Site
												{
													OFFSET 2.272919 -0.054016 -0.180438
												}
											}
										}
									}
								}
								JOINT mixamorig:LeftHandPinky1
								{
									OFFSET 7.285820 0.522377 -2.660948
									CHANNELS 3 Xrotation Yrotation Zrotation
									JOINT mixamorig:LeftHandPinky2
									{
										OFFSET 2.466278 0.082008 -0.249570
										CHANNELS 3 Xrotation Yrotation Zrotation
										JOINT mixamorig:LeftHandPinky3
										{
											OFFSET 1.940475 0.021858 -0.202004
											CHANNELS 3 Xrotation Yrotation Zrotation
											JOINT mixamorig:LeftHandPinky4
											{
												OFFSET 1.645287 0.153595 -0.153405
												CHANNELS 3 Xrotation Yrotation Zrotation
												End Site
												{
													OFFSET 1.645088 0.153801 -0.155289
												}
											}
										}
									}
								}
							}
						}
					}
				}
				JOINT mixamorig:RightShoulder
				{
					OFFSET -3.414604 7.343132 -0.036860
					CHANNELS 3 Xrotation Yrotation Zrotation
					JOINT mixamorig:RightArm
					{
						OFFSET -6.829551 -2.246986 0.022068
						CHANNELS 3 Xrotation Yrotation Zrotation
						JOINT mixamorig:RightForeArm
						{
							OFFSET -24.198494 -0.424141 0.158696
							CHANNELS 3 Xrotation Yrotation Zrotation
							JOINT mixamorig:RightHand
							{
								OFFSET -21.584698 -0.002243 0.686977
								CHANNELS 3 Xrotation Yrotation Zrotation
								JOINT mixamorig:RightHandThumb1
								{
									OFFSET -2.242882 -1.296806 1.978855
									CHANNELS 3 Xrotation Yrotation Zrotation
									JOINT mixamorig:RightHandThumb2
									{
										OFFSET -1.794239 -1.037361 1.583064
										CHANNELS 3 Xrotation Yrotation Zrotation
										JOINT mixamorig:RightHandThumb3
										{
											OFFSET -2.504150 -0.962166 1.471556
											CHANNELS 3 Xrotation Yrotation Zrotation
											JOINT mixamorig:RightHandThumb4
											{
												OFFSET -2.346046 -0.743172 0.992235
												CHANNELS 3 Xrotation Yrotation Zrotation
												End Site
												{
													OFFSET -2.157112 -0.792709 1.326359
												}
											}
										}
									}
								}
								JOINT mixamorig:RightHandIndex1
								{
									OFFSET -7.174488 -0.001839 2.366265
									CHANNELS 3 Xrotation Yrotation Zrotation
									JOINT mixamorig:RightHandIndex2
									{
										OFFSET -2.935219 -0.016853 0.287245
										CHANNELS 3 Xrotation Yrotation Zrotation
										JOINT mixamorig:RightHandIndex3
										{
											OFFSET -2.786827 -0.129890 0.255971
											CHANNELS 3 Xrotation Yrotation Zrotation
											JOINT mixamorig:RightHandIndex4
											{
												OFFSET -2.343559 0.168816 0.256164
												CHANNELS 3 Xrotation Yrotation Zrotation
												End Site
												{
													OFFSET -2.344208 0.169510 0.249690
												}
											}
										}
									}
								}
								JOINT mixamorig:RightHandMiddle1
								{
									OFFSET -7.274693 0.327965 0.656181
									CHANNELS 3 Xrotation Yrotation Zrotation
									JOINT mixamorig:RightHandMiddle2
									{
										OFFSET -3.309677 0.091591 0.032863
										CHANNELS 3 Xrotation Yrotation Zrotation
										JOINT mixamorig:RightHandMiddle3
										{
											OFFSET -3.186844 -0.122513 0.000971
											CHANNELS 3 Xrotation Yrotation Zrotation
											JOINT mixamorig:RightHandMiddle4
											{
												OFFSET -2.671951 -0.322540 -0.031001
												CHANNELS 3 Xrotation Yrotation Zrotation
												End Site
												{
													OFFSET -2.671928 -0.323486 -0.021820
												}
											}
										}
									}
								}
								JOINT mixamorig:RightHandRing1
								{
									OFFSET -7.453640 0.430428 -1.170334
									CHANNELS 3 Xrotation Yrotation Zrotation
									JOINT mixamorig:RightHandRing2
									{
										OFFSET -2.808174 0.165817 -0.117934
										CHANNELS 3 Xrotation Yrotation Zrotation
										JOINT mixamorig:RightHandRing3
										{
											OFFSET -2.730080 0.127754 -0.119542
											CHANNELS 3 Xrotation Yrotation Zrotation
											JOINT mixamorig:RightHandRing4
											{
												OFFSET -2.349426 0.078133 -0.107466
												CHANNELS 3 Xrotation Yrotation Zrotation
												End Site
												{
													OFFSET -2.349503 0.077988 -0.106043
												}
											}
										}
									}
								}
								JOINT mixamorig:RightHandPinky1
								{
									OFFSET -7.364456 0.463486 -2.604800
									CHANNELS 3 Xrotation Yrotation Zrotation
									JOINT mixamorig:RightHandPinky2
									{
										OFFSET -2.430134 0.174614 -0.251330
										CHANNELS 3 Xrotation Yrotation Zrotation
										JOINT mixamorig:RightHandPinky3
										{
											OFFSET -1.953583 0.007492 -0.220999
											CHANNELS 3 Xrotation Yrotation Zrotation
											JOINT mixamorig:RightHandPinky4
											{
												OFFSET -1.582039 0.276558 -0.139972
												CHANNELS 3 Xrotation Yrotation Zrotation
												End Site
												{
													OFFSET -1.581284 0.277252 -0.147002
												}
											}
										}
									}
								}
							}
						}
					}
				}
			}
		}
	}
	JOINT mixamorig:LeftUpLeg
	{
		OFFSET 6.620181 -8.816864 -0.447179
		CHANNELS 3 Xrotation Yrotation Zrotation
		JOINT mixamorig:LeftLeg
		{
			OFFSET 2.748989 -36.076775 0.650871
			CHANNELS 3 Xrotation Yrotation Zrotation
			JOINT mixamorig:LeftFoot
			{
				OFFSET 1.089303 -46.239017 1.019056
				CHANNELS 3 Xrotation Yrotation Zrotation
				JOINT mixamorig:LeftToeBase
				{
					OFFSET -0.371088 -10.380511 12.650617
					CHANNELS 3 Xrotation Yrotation Zrotation
					JOINT mixamorig:LeftToe_End
					{
						OFFSET -0.094684 -0.116785 6.663326
						CHANNELS 3 Xrotation Yrotation Zrotation
						End Site
						{
							OFFSET -0.094684 -0.116785 6.663326
						}
					}
				}
			}
		}
	}
	JOINT mixamorig:RightUpLeg
	{
		OFFSET -6.620174 -8.816818 -0.447182
		CHANNELS 3 Xrotation Yrotation Zrotation
		JOINT mixamorig:RightLeg
		{
			OFFSET -2.748991 -36.076790 0.753614
			CHANNELS 3 Xrotation Yrotation Zrotation
			JOINT mixamorig:RightFoot
			{
				OFFSET -1.089311 -46.239029 0.372114
				CHANNELS 3 Xrotation Yrotation Zrotation
				JOINT mixamorig:RightToeBase
				{
					OFFSET 0.371103 -10.380659 13.284531
					CHANNELS 3 Xrotation Yrotation Zrotation
					JOINT mixamorig:RightToe_End
					{
						OFFSET 0.094689 -0.116865 6.675873
						CHANNELS 3 Xrotation Yrotation Zrotation
						End Site
						{
							OFFSET 0.094687 -0.116865 6.675871
						}
					}
				}
			}
		}
	}
}
MOTION
Frames: 4
Frame Time: 0.016667
-0.084132 94.192871 1.666686 -0.351501 -3.571681 1.555155 2.086688 0.682083 -0.421118 3.140202 1.345156 -0.466472 3.139151 1.352376 -0.453905 -4.205203 -2.163388 -2.056015 -15.117956 -14.409425 3.305000 0.000001 -0.000001 -0.000000 1.270738 -7.258636 3.484638 22.834275 -18.054101 -68.042522 4.301132 -102.921935 4.420708 -0.539082 10.827510 10.874263 6.451486 13.567429 -7.523716 3.493248 7.158896 -5.114647 0.315041 5.409411 -2.668457 0.000004 0.000003 0.000002 -0.859449 -1.684295 -36.140471 7.665136 8.132690 -46.905815 4.307689 6.023797 -30.788410 0.000001 -0.000006 0.000000 1.077405 1.475859 -45.501597 2.716411 8.555915 -38.267839 2.392747 7.621999 -39.246813 -0.000001 -0.000000 0.000001 0.852789 1.471122 -51.677382 -0.368492 8.561962 -35.694555 -0.349114 7.776077 -32.901697 -0.000000 0.000001 -0.000000 3.704981 4.265470 -45.632917 -0.756853 5.805052 -40.759260 -1.427143 7.987881 -34.353345 0.000000 0.000001 0.000001 0.665236 1.653918 3.806654 24.209807 28.024746 61.320352 2.690312 110.135708 -2.876665 -6.065275 -0.050184 -14.999806 -0.492134 -19.260676 3.310376 3.431354 0.609158 5.067697 -1.486830 3.065294 0.569156 0.000001 -0.000001 0.000000 6.166364 -6.527543 47.560349 4.708909 -5.676198 30.748863 7.053431 -6.563341 43.515268 0.000000 0.000001 -0.000005 1.429199 -1.267341 40.602322 2.588894 -7.281650 35.820360 2.587110 -7.011839 34.261096 0.000002 0.000001 -0.000002 2.275261 -2.528322 49.340959 -0.163862 -5.463276 25.302161 0.050714 -6.285578 29.214929 -0.000002 0.000000 0.000001 3.023121 -3.539312 56.561152 -1.396634 -9.614406 41.129596 -1.740653 -8.885606 41.048771 0.000001 -0.000000 0.000001 -22.641756 5.526384 -5.638506 53.919784 6.096406 2.146484 -28.865650 -2.143765 5.133281 -5.537302 0.000004 0.000008 0.000000 0.000000 -0.000000 -22.259441 -7.871643 1.552222 53.970328 -12.706139 -3.645442 -27.812165 -2.793635 -0.408804 -8.029164 -0.000003 0.000006 -0.000000 -0.000000 0.000000 
-0.089668 94.419952 1.605096 -0.090277 -3.395000 1.445124 2.005220 0.652513 -0.412456 2.970574 1.287142 -0.416231 2.969610 1.293428 -0.404216 -4.102007 -2.164405 -1.948298 -15.537403 -14.217146 3.063951 -0.000001 -0.000001 -0.000000 1.330280 -7.808948 4.298808 22.771234 -18.332199 -69.209385 4.248396 -103.076646 4.369360 -0.924815 10.352080 11.841716 6.395626 13.555425 -7.311745 3.503895 7.218245 -5.120831 0.340891 5.555284 -2.687107 -0.000001 0.000005 -0.000000 -0.883900 -1.701174 -36.252083 7.643703 8.123723 -46.809455 4.302972 6.019955 -30.763298 0.000003 -0.000002 -0.000000 0.948699 1.366084 -45.821919 2.730924 8.574371 -38.373065 2.387079 7.614131 -39.203401 -0.000002 -0.000001 0.000000 0.814093 1.471615 -52.022990 -0.365374 8.573098 -35.744624 -0.354013 7.756264 -32.812932 0.000003 -0.000002 -0.000000 3.751928 4.317375 -46.094587 -0.733522 5.888315 -41.108689 -1.430484 7.962072 -34.249751 -0.000003 -0.000001 0.000001 0.717693 2.054406 3.494536 24.583801 28.696282 61.052336 2.659186 110.351699 -2.847524 -6.564379 1.079846 -14.549770 -0.542495 -19.249401 3.133479 3.431355 0.609158 5.067699 -1.495541 3.112801 0.572579 -0.000001 -0.000005 -0.000002 6.093470 -6.467824 47.451117 4.688440 -5.662348 30.644351 7.032260 -6.554267 43.416159 -0.000000 0.000001 -0.000004 1.347286 -1.147133 40.343475 2.565034 -7.251359 35.637332 2.588617 -7.012338 34.267694 0.000001 0.000000 -0.000001 2.241460 -2.490567 49.250602 -0.164905 -5.457921 25.276843 0.049072 -6.276971 29.175027 -0.000000 0.000002 -0.000002 3.002395 -3.522198 56.531632 -1.393363 -9.629388 41.195200 -1.741773 -8.879011 41.020733 0.000001 0.000001 -0.000002 -22.843721 5.347127 -5.703162 53.511681 6.239580 2.344698 -28.241449 -2.105315 5.088836 -5.894455 0.000004 0.000007 -0.000000 0.000000 0.000000 -22.441965 -8.045626 1.586630 53.604195 -12.710245 -3.487404 -27.187817 -2.796998 -0.757110 -8.445262 0.000001 0.000012 -0.000000 -0.000001 0.000000 
-0.059173 95.193306 1.643976 0.126058 -3.329681 1.196850 1.868558 0.648785 -0.330109 2.754396 1.284356 -0.298117 2.753272 1.290377 -0.286653 -4.043960 -2.166144 -1.830781 -15.606868 -14.046210 2.930878 0.000000 0.000000 0.000000 1.383243 -8.240057 4.975635 23.002656 -18.786937 -69.871544 3.998457 -103.861462 4.126560 -1.172364 9.917721 12.624013 6.330416 13.534810 -7.088746 3.494299 7.164423 -5.115321 0.364201 5.686115 -2.703823 0.000001 0.000005 -0.000000 -0.936922 -1.768621 -36.313783 7.606835 8.108124 -46.643355 4.288828 6.008461 -30.688163 -0.000001 0.000003 -0.000005 0.783365 1.208350 -46.037128 2.736641 8.581597 -38.414241 2.379403 7.603428 -39.144675 0.000005 0.000003 0.000000 0.757227 1.437066 -52.208819 -0.364232 8.577174 -35.762939 -0.359023 7.735803 -32.721295 -0.000007 -0.000003 0.000001 3.773633 4.341971 -46.364161 -0.711522 5.965067 -41.431374 -1.433613 7.937966 -34.152940 0.000001 -0.000002 0.000002 0.793370 2.643463 3.813002 25.509872 28.808020 59.609711 2.502993 111.505536 -2.701982 -7.302397 2.184124 -14.161389 -0.582034 -19.263715 2.915429 3.431354 0.609160 5.067699 -1.504056 3.159334 0.575932 -0.000001 -0.000001 0.000005 5.988155 -6.379594 47.310087 4.667771 -5.648315 30.538875 7.015826 -6.547257 43.339190 0.000000 -0.000001 -0.000001 1.247496 -1.003994 40.110518 2.534934 -7.212856 35.405495 2.590473 -7.012714 34.274890 0.000000 -0.000000 -0.000002 2.218970 -2.460089 49.098808 -0.168815 -5.437619 25.180836 0.046631 -6.267361 29.129042 0.000000 0.000001 -0.000002 2.970860 -3.496086 56.486890 -1.393192 -9.630127 41.198509 -1.742906 -8.872560 40.993211 0.000002 0.000000 -0.000001 -22.454424 5.261309 -5.716907 52.033187 6.157273 2.792602 -26.182612 -1.961007 5.100105 -7.365820 0.000006 0.000008 0.000000 0.000000 -0.000000 -21.939981 -8.323502 1.698053 51.947236 -12.757108 -3.560289 -24.884403 -2.316573 -0.257250 -10.041881 0.000000 0.000018 -0.000001 0.000001 0.000000 
0.006457 96.456863 1.763432 0.314107 -3.368352 0.867792 1.685433 0.667000 -0.195470 2.492690 1.328048 -0.136349 2.491213 1.334475 -0.125394 -4.063365 -2.169997 -1.707639 -15.273497 -13.913298 2.924160 -0.000001 -0.000001 -0.000001 1.417678 -8.490019 5.438116 23.501494 -19.359872 -69.916931 3.632187 -105.194475 3.772388 -1.136053 9.705451 13.138630 6.266136 13.510800 -6.881982 3.469042 7.022419 -5.100742 0.383396 5.793359 -2.717514 0.000004 -0.000000 -0.000000 -1.012318 -1.871166 -36.362302 7.563942 8.089820 -46.449982 4.270244 5.993284 -30.589204 -0.000000 0.000001 0.000000 0.610987 1.036209 -46.173250 2.736245 8.581122 -38.411652 2.371158 7.591940 -39.081434 0.000004 -0.000001 -0.000001 0.695875 1.383503 -52.264051 -0.364384 8.576599 -35.760275 -0.363388 7.717949 -32.641351 -0.000004 -0.000000 0.000001 3.775371 4.344621 -46.438572 -0.693914 6.025309 -41.685239 -1.435873 7.920141 -34.081356 0.000000 -0.000001 -0.000003 0.862576 3.281477 4.613115 26.646422 28.589135 57.530369 2.281329 113.373572 -2.497661 -7.865616 3.026891 -13.900994 -0.602184 -19.308202 2.679631 3.431359 0.609160 5.067700 -1.510991 3.197180 0.578657 -0.000001 -0.000001 0.000000 5.862707 -6.271698 47.167364 4.645310 -5.632983 30.423985 7.001318 -6.541029 43.271335 -0.000001 0.000000 -0.000002 1.132544 -0.843310 39.935095 2.501459 -7.169679 35.146306 2.592877 -7.013092 34.283933 -0.000001 0.000000 0.000000 2.201461 -2.432149 48.909837 -0.175006 -5.405192 25.027444 0.044498 -6.260049 29.093461 0.000001 0.000001 -0.000003 2.922665 -3.456995 56.434937 -1.395685 -9.618797 41.148809 -1.744116 -8.865776 40.964350 -0.000001 0.000001 -0.000001 -21.554383 5.341852 -5.661569 49.566112 5.736520 3.408947 -22.621368 -1.702461 5.133306 -10.026243 0.000008 0.000007 0.000000 0.000000 -0.000001 -20.823841 -8.744071 1.798721 49.042213 -12.823695 -3.821382 -20.906982 -1.253379 0.998232 -12.866055 -0.000014 0.000021 -0.000001 0.000000 -0.000000 
